<svg xmlns="http://www.w3.org/2000/svg" version="1.1" xmlns:xlink="http://www.w3.org/1999/xlink" xmlns:svgjs="http://svgjs.dev/svgjs" width="100%" height="100%" viewBox="0 0 1000 600"><rect width="1000" height="600" x="0" y="0" fill="#050505"/><g><rect width="333.3333333333333" height="333.3333333333333" y="207.5197099692089" fill="#616161" transform="matrix(0.6745908399040245,0,0,0.6745908399040246,0,47.577287227570906)" x="185.29745483398438"/><path d="M328.41263934374547 319.0677787577323L328.41263934374547 319.0677787577323Q328.41263934374547 319.8558304516367 328.23251324228164 320.4412402813942Q328.02987137813477 321.0491658738347 327.782197988622 321.67960722895816L327.782197988622 321.67960722895816Q326.4312522276431 324.8318140045757 324.94521189056627 327.89395772946114Q323.4366557908065 330.93358569166367 322.5585410461702 334.33346585679396L322.5585410461702 334.33346585679396Q319.6314918973826 346.2217885534084 318.1679673229888 358.3352688768525Q316.70444274859494 370.42623343761375 316.2316117322523 382.69732409983885L316.2316117322523 382.69732409983885Q321.3652056239722 383.823112233988 325.4630744322749 386.34487765448193Q329.5384274778946 388.8891588376589 333.41113865936745 392.3565862908381L333.41113865936745 392.3565862908381Q340.93140339548336 389.2043795152206 347.0556908452544 384.4535535891115Q353.20249405770846 379.7027276630023 357.5480362555239 373.5334086878653Q361.89357845333944 367.34157395004524 364.2802492977355 359.82130921392934Q366.6444043794486 352.30104447781343 366.6444043794486 343.76757042096335L366.6444043794486 343.76757042096335Q366.6444043794486 339.01674449485415 365.2709428557867 334.06327670459814Q363.8749655694418 329.1098089143422 361.3982316743138 324.449046038965Q358.8989820165028 319.76576740090474 355.4540703260066 315.667898592602Q352.0091586355104 311.5475140216164 347.8212267764758 308.4853702967308Q343.61077915475823 305.4457423345283 338.8374374659661 303.6669970825727Q334.04158001449093 301.88825183061715 328.8854703600881 301.88825183061715L328.8854703600881 301.88825183061715Q323.97703409519806 301.88825183061715 318.7308613900633 303.7120286079387Q313.4621729222456 305.53580538526023 309.1166307244301 308.82310673697555Q304.74857276393163 312.08789232600793 301.9791339539249 316.68110791333623Q299.2096951439181 321.27432350066454 299.2096951439181 326.7456538326291L299.2096951439181 326.7456538326291Q299.2096951439181 328.8846512875124 299.72755768562666 330.573333488736Q300.2454202273353 332.28453145264257 300.8308300570928 333.7030245016705Q301.4387556495333 335.1215175506983 301.9341024285589 336.3598844982623Q302.45196497026745 337.5757356831433 302.45196497026745 338.8591341560733L302.45196497026745 338.8591341560733Q302.45196497026745 341.1557419497375 300.9208931078247 342.68681381218016Q299.36730548269895 344.240401437306 297.1607607397668 344.240401437306L297.1607607397668 344.240401437306Q295.08931057293245 344.240401437306 293.9184909134174 343.1371290658399Q292.7251554912193 342.0113409316907 292.04968261072986 340.3451744931501Q291.3742097302404 338.70152381729247 291.1715678660936 336.83271551460496Q290.9689260019468 334.96390721191744 290.9689260019468 333.54541416288964L290.9689260019468 333.54541416288964Q290.9689260019468 326.5880434938482 294.30125887902807 320.95910282310274Q297.63359175610935 315.3526779150403 302.85724869856114 310.82700961576097L302.85724869856114 310.82700961576097Q306.16706581295944 307.99002351770525 309.54443021540675 305.851026062822Q312.899278855171 303.7120286079387 316.50180088444813 302.20347250817895Q320.10432291372524 300.69491640841915 323.97703409519806 299.95189623988074Q327.87226103935393 299.18636030865935 332.30786628790133 299.18636030865935L332.30786628790133 299.18636030865935Q338.63479560181923 299.18636030865935 344.53392542476047 300.78497945915103Q350.4330552477017 302.3610828469598 355.6116806647875 305.28813199574745Q360.7903060818733 308.2151811445351 365.1133325170058 312.3355657155207Q369.41384318945535 316.45595028650644 372.52101843970684 321.5219968901773Q375.60567792727534 326.5880434938482 377.29436012849897 332.4871733167895Q379.0055580924056 338.38630313973067 379.0055580924056 344.87084279242947L379.0055580924056 344.87084279242947Q379.0055580924056 354.44004193269666 375.56064640190937 362.52320073588714Q372.11573471141315 370.5838437763947 366.2616364138379 376.9558046156785Q360.40753811626263 383.32776545496233 352.6395999906339 387.96601256765655Q344.8941776276882 392.6042596803509 336.3381878081551 395.21608815157674L336.3381878081551 395.21608815157674Q337.2163025527914 396.0716871335301 338.04938577206167 396.88225459011744Q338.85995322864903 397.67030628402176 339.73806797328535 398.5259052659751L339.73806797328535 398.5259052659751Q344.4888938993945 403.2091839040353 349.1946883001377 408.4328408464871Q353.9004827008809 413.65649778893885 358.8989820165028 418.79009168065875Q363.8749655694418 423.9462013350616 369.18868556262555 428.6519957358047Q374.4798897931263 433.3577901365479 380.42405114143344 436.96031216582503Q386.36821248974064 440.56283419510214 393.05539400658625 442.70183164998537Q399.7425755234318 444.8408291048687 407.42045059832867 444.8408291048687L407.42045059832867 444.8408291048687Q408.7713963593075 444.8408291048687 409.98724754418856 444.7282502914537Q411.22561449175254 444.61567147803885 412.55404449004845 444.2103877497451L412.55404449004845 444.2103877497451L412.95932821834214 445.78649113755387Q409.46938500247995 447.6102679148754 405.59667382100713 448.39831960877973Q401.72396263953425 449.18637130268417 397.6936411192805 449.18637130268417L397.6936411192805 449.18637130268417Q389.29526163852825 449.18637130268417 382.4054382575358 447.49768910146054Q375.5156148765434 445.78649113755387 369.66151657896813 442.70183164998537Q363.80741828139287 439.61717216241686 358.8089189657709 435.29414572728433Q353.83293541283194 430.99363505483484 349.2397198255037 425.837525400432Q344.64650423817534 420.7039315087121 340.2559305149939 414.87234897381984Q335.8653567918125 409.0632822016106 331.1820781537523 402.8939632264736L331.1820781537523 402.8939632264736Q330.1688688330181 401.5430174654946 329.17817527496686 400.16955594183275Q328.18748171691567 398.7735786554879 327.24181968423045 397.422632894509L327.24181968423045 397.422632894509Q324.38231782349175 397.8954639108516 321.567847488119 398.1881688257304Q318.75337715274634 398.4583579779261 315.9839383427395 398.5259052659751L315.9839383427395 398.5259052659751Q315.9839383427395 408.1851674569742 316.47928512176514 417.6192720211436Q316.9521161381077 427.0308608226301 317.5825574932312 436.12722894655474L317.5825574932312 436.12722894655474L316.07400139347146 436.6225757255803Q312.8317315671221 428.22419624482814 311.12053360321545 418.2497133762671Q309.4318514019918 408.27523050770617 308.55373665735556 398.1431373003644L308.55373665735556 398.1431373003644Q306.5048022532042 397.8279166228026 304.5234151371018 397.26502255572814Q302.5420280209994 396.7246442513365 300.9208931078247 395.73395069328535Q299.29975819465005 394.7432571352341 298.3090646365988 393.27973256084033Q297.3183710785476 391.81620798644656 297.3183710785476 389.74475781961223L297.3183710785476 389.74475781961223Q297.3183710785476 387.8534337542417 298.26403311123283 386.4574564678968Q299.2096951439181 385.083994944235 300.7632827690438 384.16084867423274Q302.2943546314866 383.26021816691343 304.11813140880815 382.7423556252048Q305.9419081861297 382.2244930834962 307.7656849634512 382.0668827447154L307.7656849634512 382.0668827447154Q307.67562191271924 379.86033800178313 307.67562191271924 377.67630902153394Q307.67562191271924 375.49228004128474 307.67562191271924 373.44334563713335L307.67562191271924 373.44334563713335Q307.67562191271924 370.201075810784 307.7206534380852 365.36018683394286Q307.7656849634512 360.54181361978476 308.1259371663789 355.07048328782025Q308.4636736066236 349.62166871853856 309.274241063211 343.94769652242724Q310.0622927571153 338.29624008899873 311.43575428077725 333.3202565360598Q312.8317315671221 328.3217572204378 314.99324478468833 324.449046038965Q317.1772737649376 320.5763348574921 320.351996303238 318.75255808017056L320.351996303238 318.75255808017056Q321.5453317254361 318.03205367431514 322.9638247744639 317.4466438445576Q324.38231782349175 316.83871825211713 325.95842121130045 316.83871825211713L325.95842121130045 316.83871825211713Q328.41263934374547 316.83871825211713 328.41263934374547 319.0677787577323ZM300.0878098885544 390.0599784971739L300.0878098885544 390.0599784971739Q300.0878098885544 391.18576663132296 300.7857985317268 392.0413656132763Q301.50630293758223 392.91948035791256 302.6996383597803 393.594953238402Q303.8929737819783 394.27042611889146 305.35649835637213 394.7432571352341Q306.82002293076596 395.21608815157674 308.39612631857466 395.53130882913854L308.39612631857466 395.53130882913854Q308.2385159797938 392.82941730718073 308.1259371663789 390.19507307327183Q307.990842590281 387.53821307668 307.83323225150014 384.926384605454L307.83323225150014 384.926384605454Q306.5048022532042 384.926384605454 305.10882496685934 385.083994944235Q303.71284768051447 385.2416052830158 302.60957530904835 385.78198358740735Q301.50630293758223 386.34487765448193 300.7857985317268 387.33557121253307Q300.0878098885544 388.3262647705843 300.0878098885544 390.0599784971739ZM315.9839383427395 396.25181323499396L315.9839383427395 396.25181323499396Q318.43815647518454 396.25181323499396 320.82482731958066 395.91407679474923Q323.18898240129374 395.59885611718744 325.48559019495787 395.0584778127959L325.48559019495787 395.0584778127959Q323.5042030788554 392.3565862908381 321.2526268105573 390.1050100225399Q319.0010505422591 387.8534337542417 316.07400139347146 386.5024879932628L316.07400139347146 386.5024879932628Q315.9839383427395 388.9567061257078 315.9839383427395 391.36589273278685Q315.9839383427395 393.79759510254894 315.9839383427395 396.25181323499396Z " fill="#050505" transform="matrix(0.6745908399040245,0,0,0.6745908399040246,0,47.577287227570906)"/><path d="M637.1078316729726 317.8465474208439L637.1078316729726 317.8465474208439Q637.1078316729726 318.58619243577914 636.9387699552731 319.1356430183025Q636.7485755228611 319.70622631553823 636.5161156610243 320.29794232748645L636.5161156610243 320.29794232748645Q635.2481527782782 323.25652238722745 633.8533936072574 326.13057158811876Q632.4375017215242 328.9834880742976 631.6133258477392 332.17452799587545L631.6133258477392 332.17452799587545Q628.8660729351225 343.3326013640416 627.4924464788141 354.7020018793321Q626.1188200225058 366.0502696799101 625.6750330135447 377.5675991981876L625.6750330135447 377.5675991981876Q630.4932919679801 378.6242349338095 634.3394460456434 380.99109898160225Q638.1644674085944 383.37909574410753 641.7992943391333 386.63353380982267L641.7992943391333 386.63353380982267Q648.8576210530869 383.6749537500816 654.6057194548695 379.21595094575764Q660.3749505713645 374.75694814143367 664.4535645108646 368.96658431022627Q668.5321784503647 363.15508776430636 670.772246209883 356.0967610503528Q672.9911812546886 349.0384343363992 672.9911812546886 341.029135460386L672.9911812546886 341.029135460386Q672.9911812546886 336.570132656062 671.7020856572301 331.92093541932616Q670.3918573450591 327.2717381825903 668.0672587266911 322.89726623711607Q665.7215273936107 318.5016615769294 662.488222042608 314.65550749926604Q659.2549166916053 310.78822070689034 655.3242317550923 307.914171505999Q651.3724141038667 305.0612550198202 646.8922785848304 303.3917705575377Q642.3910103510815 301.7222860952553 637.5516186819336 301.7222860952553L637.5516186819336 301.7222860952553Q632.9446868746227 301.7222860952553 628.0207643466251 303.4340359869626Q623.0757091039152 305.1457858786699 618.997095164415 308.23116222668557Q614.8973485102024 311.29540585998876 612.2980246005728 315.6064796613257Q609.6987006909433 319.91755346266257 609.6987006909433 325.0528031377845L609.6987006909433 325.0528031377845Q609.6987006909433 327.0604110354659 610.1847531293292 328.6453646388986Q610.6708055677152 330.25145095704374 611.2202561502386 331.5828119839272Q611.7908394474744 332.9141730108106 612.2557591711479 334.07647231999465Q612.741811609534 335.2176389144662 612.741811609534 336.42220365307503L612.741811609534 336.42220365307503Q612.741811609534 338.5777405537435 611.3047870090884 340.01476515418915Q609.8466296939303 341.47292246934717 607.7756236521116 341.47292246934717L607.7756236521116 341.47292246934717Q605.8314138985675 341.47292246934717 604.7325127335207 340.4374194484378Q603.6124788537617 339.3807837128161 602.9784974123886 337.81696282409575Q602.3445159710155 336.27427465008793 602.1543215386037 334.52025932895583Q601.9641271061917 332.7662440078236 601.9641271061917 331.4348829809402L601.9641271061917 331.4348829809402Q601.9641271061917 324.90487413479747 605.0917688836322 319.6216954566885Q608.2194106610727 314.35964949329195 613.1222004743579 310.1119738360924L613.1222004743579 310.1119738360924Q616.2287095370859 307.4492517823254 619.3986167439513 305.441643884644Q622.5473912361042 303.4340359869626 625.928625590094 302.0181441012294Q629.3098599440837 300.6022522154962 632.9446868746227 299.9048726299858Q636.6006465198741 299.18636032976303 640.763791318224 299.18636032976303L640.763791318224 299.18636032976303Q646.7020841524184 299.18636032976303 652.2388554070767 300.68678307434595Q657.7756266617348 302.1660731042165 662.636151045595 304.91332601683314Q667.4966754294553 307.6605789294498 671.554156654243 311.52786572182555Q675.5905051643183 315.3951525142013 678.5068197946345 320.15001332449935Q681.4020017102382 324.90487413479747 682.9869553136708 330.44164538945563Q684.5930416318159 335.97841664411385 684.5930416318159 342.06463848129545L684.5930416318159 342.06463848129545Q684.5930416318159 351.0460422340807 681.3597362808132 358.6326868158451Q678.1264309298106 366.1981986828972 672.6319251045772 372.1787569465165Q667.1374192793439 378.1593152101359 659.8466327035535 382.5126544408977Q652.5769788424757 386.86599367165945 644.54654725175 389.31738857830203L644.54654725175 389.31738857830203Q645.370723125535 390.1204317373746 646.1526335698951 390.88120946702225Q646.9134112995428 391.6208544819575 647.7375871733277 392.42389764103007L647.7375871733277 392.42389764103007Q652.1965899776517 396.81950230121674 656.6133273525509 401.7222921145019Q661.0300647274499 406.62508192778694 665.7215273936107 411.4433408822224Q670.3918573450591 416.28273255137015 675.3791780171939 420.69946992626933Q680.3453659746164 425.1162073011684 685.9244026586994 428.4974416551581Q691.5034393427825 431.87867600914785 697.779855612376 433.88628390682925Q704.0562718819693 435.89389180451064 711.26252759891 435.89389180451064L711.26252759891 435.89389180451064Q712.5304904816562 435.89389180451064 713.6716570761278 435.78822823094845Q714.8339563853117 435.68256465738637 716.0807865533454 435.3021757925625L716.0807865533454 435.3021757925625L716.4611754181692 436.781465822433Q713.1856046377417 438.4932157141403 709.5507777072028 439.2328607290756Q705.9159507766637 439.97250574401085 702.1331948431377 439.97250574401085L702.1331948431377 439.97250574401085Q694.2506922553991 439.97250574401085 687.7840815533938 438.3875521405781Q681.3174708513884 436.781465822433 675.8229650261551 433.88628390682925Q670.3284592009218 430.9911019912256 665.636996534761 426.9336207664379Q660.9666665833126 422.8972722563626 656.6555927819757 418.05788058721475Q652.3445189806388 413.2396216327794 648.2236396117138 407.7662485222585Q644.1027602427888 402.31400812645006 639.7071555826021 396.52364429524266L639.7071555826021 396.52364429524266Q638.7561834205426 395.25568141249653 637.8263439731954 393.9665858150379Q636.8965045258482 392.65635750286685 636.0089305079259 391.3883946201207L636.0089305079259 391.3883946201207Q633.3250757394464 391.8321816290819 630.683486400392 392.1069069203436Q628.0418970613375 392.36049949689277 625.442573151708 392.42389764103007L625.442573151708 392.42389764103007Q625.442573151708 401.4898322526651 625.9074928753815 410.34443971717565Q626.3512798843426 419.1779144669739 626.9429958962909 427.71553121079796L626.9429958962909 427.71553121079796L625.5271040105577 428.18045093447154Q622.4839930919669 420.29794834673294 620.8779067738218 410.9361557291239Q619.2929531703892 401.5743631115148 618.4687772966041 392.0646414909187L618.4687772966041 392.0646414909187Q616.5457002577725 391.7687834849446 614.6860213630781 391.2404656171336Q612.8263424683837 390.73328046403515 611.3047870090884 389.803441016688Q609.783231549793 388.87360156934085 608.8533921024458 387.4999751130325Q607.9235526550985 386.1263486567242 607.9235526550985 384.1821389031801L607.9235526550985 384.1821389031801Q607.9235526550985 382.4069908673355 608.8111266730209 381.09676255516445Q609.6987006909433 379.8076669577059 611.1568580061013 378.94122565449595Q612.5938826065469 378.0959170659986 614.3056324982542 377.6098646276125Q616.0173823899615 377.12381218922656 617.7291322816689 376.97588318623946L617.7291322816689 376.97588318623946Q617.644601422819 374.90487714442077 617.644601422819 372.85500381731447Q617.644601422819 370.80513049020817 617.644601422819 368.88205345137646L617.644601422819 368.88205345137646Q617.644601422819 365.8389425327857 617.686866852244 361.29540886961206Q617.7291322816689 356.7730079211508 618.0672557170678 351.63775824602885Q618.3842464377544 346.5236412856193 619.145024167402 341.1981971780855Q619.8846691823373 335.89388578526416 621.1737647797959 331.2235558338158Q622.4839930919669 326.53209316765503 624.5127337043607 322.89726623711607Q626.562607031467 319.2624393065771 629.5423198059204 317.5506894148698L629.5423198059204 317.5506894148698Q630.6623536856796 316.8744425440718 631.9937147125631 316.3249919615485Q633.3250757394464 315.75440866431273 634.804365769317 315.75440866431273L634.804365769317 315.75440866431273Q637.1078316729726 315.75440866431273 637.1078316729726 317.8465474208439ZM610.5228765647282 384.4779969091542L610.5228765647282 384.4779969091542Q610.5228765647282 385.534632644776 611.1779907208138 386.3376758038486Q611.8542375916116 387.16185167763354 612.9742714713708 387.7958331190066Q614.0943053511298 388.42981456037967 615.4679318074382 388.87360156934085Q616.8415582637465 389.31738857830203 618.320848293617 389.6132465842761L618.320848293617 389.6132465842761Q618.17291929063 387.07732081878385 618.0672557170678 384.60479319742876Q617.9404594287932 382.1111328613614 617.7925304258061 379.6597379547188L617.7925304258061 379.6597379547188Q616.5457002577725 379.6597379547188 615.2354719456014 379.8076669577059Q613.9252436334305 379.9555959606929 612.8897406125211 380.4627811137914Q611.8542375916116 380.99109898160225 611.1779907208138 381.9209384289494Q610.5228765647282 382.85077787629666 610.5228765647282 384.4779969091542ZM625.442573151708 390.2894934550741L625.442573151708 390.2894934550741Q627.7460390553634 390.2894934550741 629.9861068148816 389.9725027343875Q632.2050418596874 389.6766447284134 634.3605787603559 389.16945957531493L634.3605787603559 389.16945957531493Q632.5008998656615 386.63353380982267 630.387628394418 384.5202623385791Q628.2743569231743 382.4069908673355 625.5271040105577 381.13902798458935L625.5271040105577 381.13902798458935Q625.442573151708 383.4424938882448 625.442573151708 385.7036943624755Q625.442573151708 387.9860275514186 625.442573151708 390.2894934550741ZM733.5575416205298 391.09253661414664L734.1492576324781 391.3883946201207Q732.205047878934 394.2201783915872 729.5000603957423 396.67157329822965Q726.7950729125504 399.1229682048722 723.5617675615478 400.89811624071683Q720.328462210545 402.69439699127395 716.7992988535682 403.7299000121833Q713.2701354965915 404.76540303309264 709.6987067101898 404.76540303309264L709.6987067101898 404.76540303309264Q704.6479878939176 404.76540303309264 700.2735159484433 403.476307435634Q695.8779112882567 402.16607912346296 692.6234732225416 399.4822243549837Q689.347902442114 396.81950230121674 687.4882235474197 392.76202107642905Q685.6285446527253 388.72567256635375 685.6285446527253 383.2945648852577L685.6285446527253 383.2945648852577Q685.6285446527253 377.9479880630115 687.5938871209819 373.29879082627565Q689.5592295892384 368.6495935895397 693.0249948020778 365.20496109141266Q696.4696273002049 361.76032859328564 701.1610899663657 359.75272069560424Q705.8314199178141 357.74511279792284 711.1779967400603 357.74511279792284L711.1779967400603 357.74511279792284Q713.7139225055525 357.74511279792284 715.9117248356459 358.4424923834332Q718.0883944510268 359.13987196894357 719.7367461985968 360.5346311399643Q721.3639652314544 361.90825759627273 722.2938046788015 363.8947327792416Q723.2236441261488 365.902340676923 723.2236441261488 368.5016645865527L723.2236441261488 368.5016645865527Q723.2236441261488 371.62930636399324 721.9556812434025 374.0173031264984Q720.6877183606564 376.3841671742913 718.6167123188377 378.1593152101359Q716.545706277019 379.9555959606929 713.9041169379645 381.13902798458935Q711.26252759891 382.3224600084857 708.4096111127312 383.08323773813345Q705.5355619118399 383.8228827530687 702.7460435697984 384.1398734737552Q699.9776579424692 384.4779969091542 697.6741920388138 384.4779969091542L697.6741920388138 384.4779969091542L695.8779112882567 384.4779969091542Q696.8500161650288 391.2404656171336 701.224488110503 394.81189440353535Q705.6200927706897 398.38332318993696 713.3335336407288 398.38332318993696L713.3335336407288 398.38332318993696Q718.8491721806745 398.38332318993696 724.0689527146461 396.43911343639286Q729.3098659633303 394.51603639756127 733.5575416205298 391.09253661414664L733.5575416205298 391.09253661414664ZM695.6665841411324 380.5473119726412L695.6665841411324 382.2590618643484L697.5262630358267 382.2590618643484Q700.1889850895936 382.2590618643484 703.02076886106 381.39262056113853Q705.8314199178141 380.5473119726412 708.113753106757 378.87782751035866Q710.3749535809877 377.20834304807624 711.8542436108582 374.75694814143367Q713.3335336407288 372.3055532347911 713.3335336407288 369.17791145735066L713.3335336407288 369.17791145735066Q713.3335336407288 366.1348005387598 712.0444380432701 364.1271926410784Q710.7342097310991 362.119584743397 707.5431698095213 362.119584743397L707.5431698095213 362.119584743397Q704.2675990290937 362.119584743397 702.0063985548632 364.0849272116536Q699.7451980806325 366.0502696799101 698.3293061948992 368.92431888080137Q696.913414309166 371.7772353669802 696.3005655825054 374.94714257384567Q695.6665841411324 378.0959170659986 695.6665841411324 380.5473119726412L695.6665841411324 380.5473119726412ZM794.1661674157959 391.09253661414664L794.6944852836069 391.3883946201207Q793.2785933978736 394.0722493886001 791.693639794441 396.52364429524266Q790.0875534762959 398.97503920188524 788.0799455786145 400.83471809657954Q786.0723376809331 402.69439699127395 783.5575446301532 403.7932981563206Q781.0216188646608 404.9133320360796 777.7460480842333 404.9133320360796L777.7460480842333 404.9133320360796Q774.047823009557 404.9133320360796 771.3639682410776 403.0959185708102Q768.7012461873107 401.2785051055407 766.7993018631915 398.25652690166237Q764.8973575390722 395.25568141249653 763.7561909446007 391.3883946201207Q762.5938916354168 387.5211078277449 761.8542466204815 383.52702474709463Q761.1146016055462 379.5118089517317 760.7342127407225 375.6022567299311Q760.374956590611 371.7138372228429 760.0790985846369 368.5861954454024L760.0790985846369 368.5861954454024Q758.6632066989038 369.70622932516153 756.6555988012223 372.85500381731447Q754.6479909035409 376.0249110241798 752.5769848617222 380.251453966667Q750.484846105191 384.4779969091542 748.6040344957842 389.465317581289Q746.702090171665 394.43150553871146 745.5186581477686 399.2708972078593L745.5186581477686 399.2708972078593Q745.2861982859318 400.30640022876867 744.8001458475458 401.4264341085278Q744.3140934091597 402.54646798828685 743.6167138236493 403.476307435634Q742.919334238139 404.40614688298126 741.9472293613669 405.0189956096418Q740.9751244845949 405.6529770510149 739.7916924606984 405.6529770510149L739.7916924606984 405.6529770510149Q737.8686154218668 405.6529770510149 737.0021741186569 404.32161602413146Q736.1568655301595 402.99025499724803 735.7764766653356 401.2785051055407L735.7764766653356 401.2785051055407Q733.6209397646672 391.8321816290819 732.7756311761698 383.23116674112043Q731.9091898729599 374.6090191384467 731.9091898729599 365.9868715357728L731.9091898729599 365.9868715357728Q731.9091898729599 363.8947327792416 732.6277021731827 362.3731773199463Q733.325081758693 360.8516218606509 734.5085137825895 359.85838426916644Q735.7130785211983 358.8440139629695 737.3402975540558 358.3790942392959Q738.9675165869135 357.8930418009098 740.7637973374705 357.8930418009098L740.7637973374705 357.8930418009098Q740.9751244845949 357.8930418009098 741.4611769229808 357.8930418009098Q741.9472293613669 357.8930418009098 742.3910163703281 357.998705374472Q742.8348033792892 358.1043689480342 743.1306613852634 358.336828809871Q743.4265193912374 358.5481559569954 743.3631212471001 358.9285448218192L743.3631212471001 358.9285448218192Q741.418911493556 368.6495935895397 741.5034423524057 378.7298985073717Q741.566840496543 388.78907071049116 742.5389453733151 398.0874651839629L742.5389453733151 398.0874651839629Q743.3631212471001 394.36810739457417 744.9480748505329 389.655512013701Q746.554161168678 384.92178391811535 748.6674326399215 380.1457903931048Q750.7807041111652 375.34866415338195 753.2743644472325 370.99532492262006Q755.7680247833 366.6631184065708 758.3673486929296 363.68340563211734L758.3673486929296 363.68340563211734Q759.6353115756757 362.2675137463841 760.9244071731343 361.27427615489955Q762.2346354853054 360.2599058487027 764.157712524137 360.2599058487027L764.157712524137 360.2599058487027Q765.2777464038961 360.2599058487027 766.0173914188314 360.7036928576638Q766.7570364337666 361.14747986662496 767.2430888721527 361.82372673742293Q767.7291413105387 362.4999736082209 767.9827338870879 363.34528219671836Q768.2363264636372 364.2117234999282 768.3842554666242 365.01476665900077L768.3842554666242 365.01476665900077Q768.764644331448 367.17030355966926 769.1450331962718 370.5938033430838Q769.5042893463833 374.0173031264984 770.0748726436191 377.8634572041618Q770.6243232261423 381.7307439965375 771.4484990999274 385.6402962183382Q772.251542259 389.5287157254264 773.5195051417461 392.69862293229176Q774.7874680244922 395.8473974244447 776.5626160603368 397.8550053221261Q778.358896810894 399.8626132198075 780.8102917175365 399.8626132198075L780.8102917175365 399.8626132198075Q782.8178996152179 399.8626132198075 784.6987112246246 399.08070277544743Q786.6006555487439 398.29879233108727 788.3124054404512 397.0730948777659Q790.0241553321586 395.8473974244447 791.5034453620291 394.26244382101197Q792.9827353918995 392.65635750286685 794.1661674157959 391.09253661414664L794.1661674157959 391.09253661414664ZM836.156871549406 420.29794834673294L836.156871549406 420.29794834673294Q836.156871549406 426.6166300457513 834.1915290811495 431.92094143857275Q832.2050538981806 437.2252528313942 828.4645633940794 441.050274194345Q824.7029401752658 444.8964282720083 819.2929652088823 447.0308324579644Q813.8618575277861 449.18636935863276 807.0359906756694 449.18636935863276L807.0359906756694 449.18636935863276Q805.6834969340736 449.18636935863276 803.3166328862807 448.8693786379463Q800.9286361237754 448.5312552025473 798.6040375054075 447.79161018761204Q796.258306172327 447.0308324579644 794.5042908511949 445.84740043406794Q792.7714082447752 444.6639684101716 792.7714082447752 442.9522185184643L792.7714082447752 442.9522185184643Q792.7714082447752 441.76878649456785 793.7012476921224 441.1982031973321Q794.6099544247571 440.6487526148087 795.6665901603789 440.6487526148087L795.6665901603789 440.6487526148087Q796.9134203284126 440.6487526148087 798.0757196375965 441.53632663273106Q799.2168862320681 442.4450333653658 800.6750435472262 443.48053638627516Q802.1332008623842 444.5160394071845 804.0985433306408 445.40361342510687Q806.0638857988973 446.2911874430291 809.0435985733508 446.2911874430291L809.0435985733508 446.2911874430291Q813.6293976659493 446.2911874430291 816.904968446377 444.3681104041974Q820.1805392268045 442.4450333653658 822.2515452686232 439.38078973206257Q824.3436840251544 436.3376788134718 825.2946561872141 432.5549228799458Q826.266761063986 428.7721669464198 826.266761063986 424.9682782981813L826.266761063986 424.9682782981813Q826.266761063986 420.15001934374595 825.4214524754886 416.43066155435724Q824.5550111722787 412.71130376496853 822.674199562872 409.7527237052275Q820.7722552387527 406.77301093077403 817.8348078937241 404.27935059470656Q814.8973605486956 401.7856902586392 810.7342157503457 399.4188262108464L810.7342157503457 399.4188262108464Q810.5228886032213 399.1863663490095 810.2270305972472 398.93277377246034Q809.9311725912731 398.67918119591104 809.9311725912731 398.23539418695L809.9311725912731 398.23539418695Q809.9311725912731 397.9395361809759 811.5583916241306 396.0375918568566Q813.1856106569883 394.1356475327374 815.1932185546697 391.3249964759834Q817.2008264523511 388.49321270451696 818.8491781999211 385.06971292110245Q820.4763972327786 381.6673458524002 820.4763972327786 378.3283769278354L820.4763972327786 378.3283769278354Q820.4763972327786 376.6166270361281 819.9903447943926 374.672417282584Q819.5042923560065 372.7493402437523 818.5533201939469 371.10098849618225Q817.581215317175 369.47376946332474 816.1230580020168 368.3960010129905Q814.6860334015712 367.31823256265625 812.8263545068768 367.31823256265625L812.8263545068768 367.31823256265625Q810.5228886032213 367.31823256265625 808.7054751379518 368.5861954454024Q806.8880616726823 369.8541583281485 805.1974444956875 372.009695228817Q803.5279600334051 374.1652321294855 802.2388644359464 377.12381218922656Q800.9286361237754 380.10352496368 799.7874695293038 383.548157461807Q798.6251702201199 387.01392267464655 796.6598277518634 390.2472280256492Q794.6944852836069 393.4805333766519 789.2633776025108 397.7916071779888L789.2633776025108 397.7916071779888L788.5237325875756 397.03082944834114Q791.6513743650161 393.1846753706777 793.5110532597105 388.72567256635375Q795.3707321544048 384.2666697620298 796.4696333194514 379.913330531268Q797.5896671992106 375.5599913005062 799.4493460939049 371.9674297993921Q801.3090249885993 368.3537355835656 803.7604198952419 364.9513685148635Q806.2118148018844 361.52786873144885 809.1915275763379 359.33006640135545Q812.1501076360789 357.15339678597456 816.0173944284546 357.15339678597456L816.0173944284546 357.15339678597456Q818.9971072029081 357.15339678597456 821.5964311125377 358.4847578128581Q824.1957550221673 359.81611883974153 826.1610974904239 362.0139211698348Q828.1264399586804 364.2117234999282 829.2464738384396 366.95897641254487Q830.3665077181986 369.70622932516153 830.3665077181986 372.5168803819155L830.3665077181986 372.5168803819155Q830.3665077181986 375.34866415338195 829.3521374120018 378.2015806395608Q828.3588998205172 381.07562984045205 826.7528135023721 383.8228827530687Q825.146727184227 386.57013566568537 823.1391192865456 388.97926514290305Q821.1526441035766 391.3883946201207 819.2084343500325 393.1846753706777L819.2084343500325 393.1846753706777Q827.7460510938566 397.1153603071908 831.9514613216313 404.1736870211445Q836.156871549406 411.232013735098 836.156871549406 420.29794834673294ZM881.9937297606795 380.10352496368L881.9937297606795 380.10352496368Q881.9937297606795 385.30217278293924 880.2819798689721 389.7611755872632Q878.5702299772648 394.2201783915872 875.4425881998244 397.4957491720147Q872.3360791370964 400.75018723772985 867.9827399063345 402.60986613242414Q863.6505333902851 404.46954502711856 858.3673547121762 404.46954502711856L858.3673547121762 404.46954502711856Q853.6758920460153 404.46954502711856 849.9354015419143 402.71552970598634Q846.1737783231007 400.98264709956663 843.5110562693337 398.0029343251132Q840.8272015008544 395.04435426537214 839.4113096151211 391.05027118472174Q838.0165504441004 387.07732081878385 838.0165504441004 382.5549198703226L838.0165504441004 382.5549198703226Q838.0165504441004 378.77216393679646 839.0943188944347 375.34866415338195Q840.1720873447688 371.9251643699673 842.0951643836005 368.98771702493866Q844.0182414224322 366.0502696799101 846.7020961909116 363.57774205855515Q849.3859509593909 361.08408172248767 852.492460022119 359.07647382480627L852.492460022119 359.07647382480627L853.3800340400412 359.75272069560424Q850.2735249773132 363.38754762614315 848.4772442267562 367.76201957161743Q846.7020961909116 372.1576242318041 846.7020961909116 377.06041404508915L846.7020961909116 377.06041404508915Q846.7020961909116 380.6107101167785 847.7798646412458 384.3089351914547Q848.8576330915799 387.9860275514186 850.9286391333986 391.02913847000934Q853.0207778899298 394.0722493886001 856.127286952658 395.9953264274318Q859.2549287300984 397.9395361809759 863.2701445254612 397.9395361809759L863.2701445254612 397.9395361809759Q865.7849375762411 397.9395361809759 868.0250053357594 396.88290044535404Q870.243940380565 395.8473974244447 871.9134248428476 394.0722493886001Q873.6040420198424 392.2759686380431 874.5972796113268 390.0147681638124Q875.6116499175238 387.7535676895817 875.6116499175238 385.30217278293924L875.6116499175238 385.30217278293924Q875.6116499175238 382.91417602043396 874.893137617301 380.65297554620327Q874.1957580317907 378.3917750719727 872.9277951490445 376.4264326037161Q871.6598322662983 374.4610901354596 869.8846842304537 372.85500381731447Q868.0884034798967 371.27005021388175 866.0173974380779 370.21341447826L866.0173974380779 370.21341447826Q864.8339654141815 369.6216984663117 863.7561969638473 369.32584046033764Q862.678428513513 369.02998245436356 861.4104656307669 368.6495935895397L861.4104656307669 368.6495935895397Q860.8821477629559 368.5861954454024 860.2904317510078 368.3960010129905Q859.6987157390596 368.2058065805786 859.1915305859611 367.9522140040293Q858.6632127181502 367.69862142748013 858.2828238533264 367.25483441851895Q857.923567703215 366.8110474095578 857.923567703215 366.1348005387598L857.923567703215 366.1348005387598Q857.923567703215 364.8034395118764 858.895672579987 363.68340563211734Q859.8466447420466 362.5633717523582 861.1780057689301 361.71806316386073Q862.530499510526 360.8516218606509 864.0097895403966 360.3655694222649Q865.4890795702671 359.9006496985912 866.6091134500261 359.9006496985912L866.6091134500261 359.9006496985912Q870.3918693835521 359.9006496985912 873.3081840138683 361.82372673742293Q876.2033659294719 363.74680377625464 878.1264429683036 366.7265165507081Q880.0495200071354 369.70622932516153 881.0216248839074 373.25652539685075Q881.9937297606795 376.82795418325236 881.9937297606795 380.10352496368ZM956.8880707015522 317.8465474208439L956.8880707015522 317.8465474208439Q956.8880707015522 318.58619243577914 956.6978762691402 319.1356430183025Q956.5076818367282 319.70622631553823 956.2752219748916 320.29794232748645L956.2752219748916 320.29794232748645Q955.0283918068578 323.25652238722745 953.6547653505495 326.13057158811876Q952.2811388942412 328.9834880742976 951.3724321616064 332.17452799587545L951.3724321616064 332.17452799587545Q949.0689662579509 340.5853484514249 947.6953398016426 349.60901763363495Q946.3217133453342 358.6326868158451 945.729997333386 368.1424084364413L945.729997333386 368.1424084364413Q951.7528210264303 368.2903374394283 958.3673607314227 369.6216984663117Q964.9819004364151 370.95305949319527 971.2160512765837 373.57351611753734L971.2160512765837 373.57351611753734Q975.9075139427445 370.7417323460709 979.7959334498327 367.02237455668217Q983.7054856716333 363.30301676729346 986.4950040136748 358.7806158188322Q989.263389641004 354.2370821556584 990.7849451002993 349.0384343363992Q992.3276332743072 343.83978651714006 992.17970427132 338.13395354478234L992.17970427132 338.13395354478234Q992.17970427132 329.5752040862458 989.2422569262916 322.8127353782663Q986.3048095812629 316.0502666702869 981.4442851974027 311.3799367188385Q976.56262809883 306.68847405267775 970.3284772586615 304.2159464313228Q964.0943264184929 301.7222860952553 957.4797867135004 301.7222860952553L957.4797867135004 301.7222860952553Q952.8728549061893 301.7222860952553 947.8855342340545 303.4340359869626Q942.919346276632 305.1457858786699 938.8195996224196 308.18889679726067Q934.7409856829194 311.2320077158514 932.0993963438649 315.5430815171884Q929.4578070048104 319.8541553185253 929.4578070048104 325.0528031377845L929.4578070048104 325.0528031377845Q929.4578070048104 327.0604110354659 929.9438594431964 328.6876300683235Q930.4299118815824 330.31484910118104 930.9793624641057 331.667342842777Q931.5499457613415 332.9987038696604 932.0359981997277 334.13987046413195Q932.5009179234013 335.3021697733159 932.5009179234013 336.42220365307503L932.5009179234013 336.42220365307503Q932.5009179234013 338.5777405537435 931.0638933229556 340.01476515418915Q929.6057360077974 341.47292246934717 927.5347299659787 341.47292246934717L927.5347299659787 341.47292246934717Q925.611652927147 341.47292246934717 924.491619047388 340.4374194484378Q923.3715851676288 339.3807837128161 922.7376037262558 337.81696282409575Q922.1036222848827 336.27427465008793 921.9345605671832 334.52025932895583Q921.7443661347713 332.7662440078236 921.7443661347713 331.4348829809402L921.7443661347713 331.4348829809402Q921.7443661347713 324.90487413479747 924.829742482787 319.57943002726364Q927.9151188308025 314.2751186344422 932.8813067882251 310.1119738360924L932.8813067882251 310.1119738360924Q936.0089485656655 307.4492517823254 939.1577230578185 305.39937845521916Q942.3276302646839 303.3495051281129 945.6665991892487 301.97587867180454Q949.0055681138136 300.6022522154962 952.6826604737774 299.9048726299858Q956.3597528337413 299.18636032976303 960.5228976320911 299.18636032976303L960.5228976320911 299.18636032976303Q970.5398044057857 299.18636032976303 978.5702359965113 302.1238076747916Q986.600667587237 305.0612550198202 992.17970427132 310.1542392655173Q997.7376082406907 315.24722351121426 1000.759586444569 322.00969221919377Q1003.7604319337349 328.7721609271732 1003.7604319337349 336.42220365307503L1003.7604319337349 336.42220365307503Q1003.7604319337349 343.48053036702856 1001.6048950330666 349.46108863064796Q999.4493581323981 355.44164689426725 995.7300003430094 360.3655694222649Q992.031775268333 365.31062466497485 986.9599237373484 369.17791145735066Q981.9092049210763 373.04519824972635 976.0554429457314 375.8558493064803L976.0554429457314 375.8558493064803Q979.8381988792576 377.9479880630115 983.0715042302602 380.58957740206597Q986.3048095812629 383.23116674112043 988.6716736290557 386.52787023626047Q991.059670391561 389.8245737314005 992.3910314184444 393.776391382626Q993.722392445328 397.707076319139 993.722392445328 402.31400812645006L993.722392445328 402.31400812645006Q993.722392445328 407.3647269427222 991.7147845476464 411.8659951764711Q989.7283093646776 416.36726341021995 986.3048095812629 419.81189590834697Q982.8813097978483 423.256528406474 978.3800415640994 425.2641363041554Q973.8999060450631 427.2717442018368 968.9125853729282 427.2717442018368L968.9125853729282 427.2717442018368Q966.0174034573245 427.2717442018368 962.8263635357467 426.19397575150265Q959.6353236141689 425.1162073011684 956.7401416985651 423.3410592653238Q953.823827068249 421.5659112294792 951.3724321616064 419.2624453258236Q948.9210372549638 416.9589794221681 947.4417472250933 414.50758451552554L947.4417472250933 414.50758451552554L948.4772502460027 413.5988777828908Q952.2811388942412 416.81105041918113 957.1416632781014 418.7763928874376Q962.0021876619617 420.7417353556941 966.9049774752467 420.7417353556941L966.9049774752467 420.7417353556941Q970.7088661234852 420.15001934374595 973.7097116126512 418.05788058721475Q976.710557101817 415.98687454539606 978.8026958583482 412.9860290562302Q980.8737019001669 409.9640508523519 981.9514703505012 406.37148935123776Q983.0292388008354 402.75779513541124 983.0292388008354 399.1229682048722L983.0292388008354 399.1229682048722Q983.0292388008354 391.7687834849446 979.7959334498327 386.57013566568537Q976.56262809883 381.37148784642613 971.4485111384205 377.9479880630115L971.4485111384205 377.9479880630115Q965.0452985805524 380.4627811137914 958.3673607314227 381.7307439965375Q951.6894228822929 382.99870687928365 945.1382813214378 383.14663588227074L945.1382813214378 383.14663588227074Q944.9903523184508 394.87529254767264 945.4764047568368 406.22356034825066Q945.9624571952229 417.5506954341163 946.7021022101582 427.71553121079796L946.7021022101582 427.71553121079796L945.2862103244248 428.18045093447154Q943.4265314297305 423.256528406474 942.095170402847 417.6986244371034Q940.7638093759637 412.11958775302026 939.8762353580413 406.24469306296317Q938.9675286254065 400.39093108761836 938.4180780428832 394.41037282399907Q937.8686274603599 388.42981456037967 937.6361675985231 382.6183180144599L937.6361675985231 382.6183180144599Q935.8610195626785 382.3224600084857 934.043606097409 381.7730094259624Q932.2050599174271 381.22355884343904 930.7680353169814 380.3571175402292Q929.3098780018233 379.5118089517317 928.4223039839011 378.3283769278354Q927.5347299659787 377.12381218922656 927.5347299659787 375.41206229751924L927.5347299659787 375.41206229751924Q927.5347299659787 373.7214451205243 928.3800385544761 372.5168803819155Q929.246479857686 371.33344835801904 930.6623717434193 370.4881397695217Q932.0571309144401 369.6216984663117 933.853411664997 369.13564602792576Q935.6285597008417 368.6495935895397 937.4248404513987 368.4382664424154L937.4248404513987 368.4382664424154Q937.4248404513987 365.31062466497485 937.488238595536 360.7882237165136Q937.5727694543858 356.2446900533398 937.8897601750724 351.1728385223553Q938.2278836104713 346.07985427665824 938.9463959106942 340.8389410279741Q939.6437754962045 335.59802777928996 940.975136523088 330.991095971979Q942.3276302646839 326.38416416466794 944.3141054476529 322.8127353782663Q946.3217133453342 319.2624393065771 949.3014261197877 317.5506894148698L949.3014261197877 317.5506894148698Q950.4214599995468 316.8744425440718 951.7528210264303 316.3249919615485Q953.0841820533137 315.75440866431273 954.5846047978966 315.75440866431273L954.5846047978966 315.75440866431273Q956.8880707015522 315.75440866431273 956.8880707015522 317.8465474208439ZM945.2228121802876 381.13902798458935L945.2228121802876 381.13902798458935Q951.0131760114949 381.07562984045205 956.6978762691402 379.6597379547188Q962.3825765267856 378.2438460689856 967.4966934871951 375.64452215935603L967.4966934871951 375.64452215935603Q962.5305055297725 373.19312725271345 956.8458052721272 371.9674297993921Q951.1611050144821 370.7417323460709 945.582068330399 370.4458743400968L945.582068330399 370.4458743400968Q945.434139327412 373.10859639386365 945.3707411832746 375.792451162343Q945.2862103244248 378.4763059308224 945.2228121802876 381.13902798458935ZM930.2819828785954 374.90487714442077L930.2819828785954 374.90487714442077Q930.2819828785954 376.0249110241798 930.9159643199686 376.87021961267726Q931.5499457613415 377.7155282011747 932.5431833528261 378.3917750719727Q933.557553659023 379.06802194277066 934.8466492564816 379.5540743811566Q936.1568775686526 380.0189941048302 937.5727694543858 380.3148521108043L937.5727694543858 380.3148521108043Q937.488238595536 377.8000590600244 937.4459731661112 375.41206229751924Q937.4248404513987 373.04519824972635 937.4248404513987 370.6572014872211L937.4248404513987 370.6572014872211Q936.0723467098029 370.80513049020817 934.8043838270568 371.14325392560715Q933.557553659023 371.48137736100614 932.5431833528261 371.9674297993921Q931.5499457613415 372.4534822377782 930.9159643199686 373.19312725271345Q930.2819828785954 373.9327722676487 930.2819828785954 374.90487714442077ZM1038.819605641666 363.09168962016906L1038.819605641666 363.09168962016906Q1038.819605641666 363.8947327792416 1038.227889629718 364.5287142206147Q1037.6361736177696 365.16269566198775 1036.8119977439846 365.16269566198775L1036.8119977439846 365.16269566198775Q1036.156883587899 365.16269566198775 1035.417238572964 364.7611740824515Q1034.6564608433164 364.3596525029152 1033.7477541106814 363.8313346351043Q1032.8179146633342 363.30301676729346 1031.5922172100131 362.9014951877572Q1030.3665197566916 362.4999736082209 1028.8026988679715 362.4999736082209L1028.8026988679715 362.4999736082209Q1025.14673922272 362.4999736082209 1022.2938227365411 364.7611740824515Q1019.4409062503624 367.02237455668217 1017.4755637821057 370.361343481247Q1015.4890885991368 373.7214451205243 1014.4535855782275 377.5042010540503Q1013.4180825573181 381.28695698757633 1013.4180825573181 384.3300679061672L1013.4180825573181 384.3300679061672Q1013.4180825573181 386.48560480683557 1013.7984714221419 388.53547813394187Q1014.1577275722533 390.58535146104816 1015.0875670196006 392.2548359233306Q1016.0174064669478 393.924320385613 1017.6446254998053 394.91755797709754Q1019.2929772473753 395.9319282832944 1021.8077702981551 395.9319282832944L1021.8077702981551 395.9319282832944Q1024.4916250666347 395.9319282832944 1026.943019973277 394.91755797709754Q1029.3944148799196 393.924320385613 1031.5499517805881 392.2759686380431L1031.5499517805881 392.2759686380431Q1031.6133499247253 389.9091045902502 1032.3318622249483 387.26751525119573Q1033.0292418104586 384.62592591214127 1034.1492756902176 382.0688674319365Q1035.269309569977 379.5118089517317 1036.7063341704225 377.20834304807624Q1038.1644914855806 374.90487714442077 1039.728312374301 373.10859639386365L1039.728312374301 373.10859639386365L1040.6792845363602 373.7214451205243Q1039.876241377288 376.2362381713042 1039.495852512464 378.92009293978356Q1039.1154636476401 381.5828149935505 1039.1154636476401 384.1821389031801L1039.1154636476401 384.1821389031801Q1039.1154636476401 386.86599367165945 1039.5803833713137 389.2328577194522Q1040.0241703802749 391.6208544819575 1041.1230715453216 393.3537370883772Q1042.2431054250806 395.10775240950943 1044.1661824639123 396.1221227157064Q1046.1103922174566 397.1153603071908 1049.1535031360472 397.1153603071908L1049.1535031360472 397.1153603071908Q1052.8728609254358 397.1153603071908 1055.9793699881639 395.4036104154835Q1059.1070117656045 393.6918605237762 1061.4950085281098 391.09253661414664L1061.4950085281098 391.09253661414664L1062.086724540058 391.3883946201207Q1060.734230798462 393.9877185297503 1058.5998266125061 396.37571529225556Q1056.4442897118374 398.74257934004845 1053.802700372783 400.64452366416765Q1051.1611110337285 402.54646798828685 1048.1813982592753 403.6453691533335Q1045.2228181995342 404.76540303309264 1042.3276362839306 404.76540303309264L1042.3276362839306 404.76540303309264Q1038.227889629718 404.76540303309264 1035.6285657200883 402.41967170001226Q1033.0292418104586 400.0950730816443 1032.0571369336867 396.52364429524266L1032.0571369336867 396.52364429524266Q1028.9506278709587 399.6301533579707 1025.1256065080074 401.7645575439267Q1021.3005851450567 403.8778290151703 1017.0529094878572 403.8778290151703L1017.0529094878572 403.8778290151703Q1013.946400425129 403.8778290151703 1011.5161382331988 402.71552970598634Q1009.1070087559812 401.5743631115148 1007.4797897231236 399.6301533579707Q1005.8314379755537 397.707076319139 1004.9861293870562 395.06548698008453Q1004.1408207985588 392.42389764103007 1004.1408207985588 389.5287157254264L1004.1408207985588 389.5287157254264Q1004.1408207985588 386.1897468008615 1005.218589248893 382.6605834438848Q1006.2963576992273 379.13142008690795 1008.177169308634 375.7079203034933Q1010.0791136327533 372.3055532347911 1012.6784375423829 369.26244231620035Q1015.2777614520124 366.1981986828972 1018.3631378000281 363.8947327792416Q1021.4485141480437 361.59126687558614 1024.850881216746 360.2599058487027Q1028.2743810001607 358.9285448218192 1031.8458097865623 358.9285448218192L1031.8458097865623 358.9285448218192Q1032.6699856603473 358.9285448218192 1033.8534176842436 359.1187392542312Q1035.03684970814 359.30893368664306 1036.156883587899 359.75272069560424Q1037.2769174676582 360.1965077045654 1038.037695197306 360.999550863638Q1038.819605641666 361.82372673742293 1038.819605641666 363.09168962016906ZM1114.8973786064353 391.09253661414664L1115.5736254772332 391.3883946201207Q1114.2422644503497 394.36810739457417 1112.1923911232434 396.73497144236694Q1110.1425177961373 399.1229682048722 1107.7756537483442 400.79245266715463Q1105.387656985839 402.46193712943716 1102.8728639350593 403.3917765767843Q1100.336938169567 404.32161602413146 1098.0334722659113 404.32161602413146L1098.0334722659113 404.32161602413146Q1093.7223984645743 404.32161602413146 1090.7638184048333 402.84232599426093Q1087.78410563038 401.341903249678 1085.9244267356858 398.82711019889814Q1084.0647478409915 396.2911844334059 1083.2617046819187 392.88881736470364Q1082.4375288081337 389.465317581289 1082.4375288081337 385.5980307889133L1082.4375288081337 385.5980307889133Q1082.4375288081337 382.6183180144599 1082.881315817095 379.42727809288203Q1083.325102826056 376.2362381713042 1084.149278699841 373.25652539685075L1084.149278699841 373.25652539685075Q1084.297207702828 372.81273838788957 1084.445136705815 372.1787569465165Q1084.593065708802 371.56590821985594 1084.593065708802 371.10098849618225L1084.593065708802 371.10098849618225Q1084.593065708802 370.7417323460709 1084.149278699841 370.5092724842341L1084.149278699841 370.5092724842341Q1082.881315817095 370.0654854752729 1081.4654239313618 369.66396389573663Q1080.0706647603408 369.26244231620035 1078.67590558932 368.7341244483895Q1077.3022791330118 368.2058065805786 1076.0765816796907 367.55069242449304Q1074.850884226369 366.87444555369507 1073.963310208447 365.8389425327857L1073.963310208447 365.8389425327857Q1073.8999120643098 370.2979453371097 1072.4840201785764 374.86261171499586Q1071.068128292843 379.42727809288203 1068.7223969597628 383.6326883206567Q1066.3977983413947 387.8380985484315 1063.2701565639545 391.4729254789704Q1060.1425147865139 395.10775240950943 1056.6556168589618 397.7916071779888L1056.6556168589618 397.7916071779888L1055.915971844027 397.03082944834114Q1058.0715087446952 394.66396540054825 1059.84665678054 391.3883946201207Q1061.6429375310968 388.1339565544056 1062.8897676991305 384.562527768004Q1064.1577305818766 380.99109898160225 1064.8762428820996 377.35627205106334Q1065.5736224676098 373.7214451205243 1065.5736224676098 370.5092724842341L1065.5736224676098 370.5092724842341Q1065.5736224676098 368.88205345137646 1065.2777644616358 367.42389613621845Q1064.9819064556618 365.9868715357728 1064.6437830202626 364.6555105088894Q1064.3056595848639 363.30301676729346 1064.0098015788897 362.0773193139721Q1063.7139435729155 360.8516218606509 1063.7139435729155 359.60479169261714L1063.7139435729155 359.60479169261714Q1063.7139435729155 357.51265293608606 1065.045304599799 356.3292209121896Q1066.3977983413947 355.14578888829317 1068.4688043832136 355.14578888829317L1068.4688043832136 355.14578888829317Q1069.5888382629728 355.14578888829317 1070.180554274921 355.77977032966623Q1070.7722702868691 356.3926190563269 1071.21605729583 357.30132578896166Q1071.6598443047915 358.1888998068839 1072.2515603167394 359.13987196894357Q1072.8644090434004 360.1119768457156 1073.963310208447 360.7882237165136L1073.963310208447 360.7882237165136Q1075.37920209418 361.59126687558614 1077.5347389948488 361.97165574041003Q1079.690275895517 362.3520446052338 1082.0571399433097 362.6479026112079Q1084.445136705815 362.9437606171821 1086.812000753608 363.23961862315616Q1089.1999975161132 363.53547662913024 1091.1019418402325 364.2328562146406Q1092.9827534496394 364.9513685148635 1094.1661854735357 366.1770659681847Q1095.3707502121445 367.40276342150605 1095.3707502121445 369.47376946332474L1095.3707502121445 369.47376946332474Q1095.3707502121445 370.5092724842341 1095.1805557797325 371.52364279043104Q1094.9903613473207 372.5168803819155 1094.6311051972093 373.40445439983785L1094.6311051972093 373.40445439983785Q1093.7223984645743 376.5320961772783 1093.1095497379138 379.765401528281Q1092.4755682965406 382.99870687928365 1092.4755682965406 386.1897468008615L1092.4755682965406 386.1897468008615Q1092.4755682965406 388.93699971347814 1092.877089876077 391.19820018770884Q1093.2786114556134 393.4805333766519 1094.3986453353723 395.10775240950943Q1095.5186792151317 396.73497144236694 1097.378358109826 397.6436781750017Q1099.2380370045203 398.53125219292406 1102.133218920124 398.53125219292406L1102.133218920124 398.53125219292406Q1106.296363718474 398.53125219292406 1109.402872781202 396.48137886581776Q1112.5305145586426 394.43150553871146 1114.8973786064353 391.09253661414664L1114.8973786064353 391.09253661414664ZM1168.4054122583227 391.09253661414664L1169.0605264144083 391.3883946201207Q1167.729165387525 394.36810739457417 1165.6792920604184 396.73497144236694Q1163.6505514480245 399.1229682048722 1161.2625546855195 400.79245266715463Q1158.8956906377266 402.46193712943716 1156.3597648722343 403.3917765767843Q1153.8449718214545 404.32161602413146 1151.541505917799 404.32161602413146L1151.541505917799 404.32161602413146Q1147.230432116462 404.32161602413146 1144.2507193420088 402.84232599426093Q1141.271006567555 401.341903249678 1139.4324603875734 398.82711019889814Q1137.572781492879 396.2911844334059 1136.748605619094 392.88881736470364Q1135.9244297453088 389.465317581289 1135.9244297453088 385.5980307889133L1135.9244297453088 385.5980307889133Q1135.9244297453088 382.6183180144599 1136.3682167542702 379.42727809288203Q1136.8120037632311 376.2362381713042 1137.636179637016 373.25652539685075L1137.636179637016 373.25652539685075Q1137.784108640003 372.81273838788957 1137.9320376429903 372.1787569465165Q1138.0799666459775 371.56590821985594 1138.0799666459775 371.10098849618225L1138.0799666459775 371.10098849618225Q1138.0799666459775 370.7417323460709 1137.636179637016 370.5092724842341L1137.636179637016 370.5092724842341Q1136.3682167542702 370.0654854752729 1134.9734575832495 369.66396389573663Q1133.557565697516 369.26244231620035 1132.1839392412076 368.7341244483895Q1130.8103127848995 368.2058065805786 1129.584615331578 367.55069242449304Q1128.3589178782568 366.87444555369507 1127.4502111456222 365.8389425327857L1127.4502111456222 365.8389425327857Q1127.3868130014848 370.2979453371097 1125.9709211157515 374.86261171499586Q1124.5550292300184 379.42727809288203 1122.2304306116505 383.6326883206567Q1119.88469927857 387.8380985484315 1116.7570575011296 391.4729254789704Q1113.6505484384015 395.10775240950943 1110.1425177961373 397.7916071779888L1110.1425177961373 397.7916071779888L1109.402872781202 397.03082944834114Q1111.5584096818702 394.66396540054825 1113.3546904324273 391.3883946201207Q1115.1298384682718 388.1339565544056 1116.3978013510182 384.562527768004Q1117.644631519052 380.99109898160225 1118.3631438192747 377.35627205106334Q1119.060523404785 373.7214451205243 1119.060523404785 370.5092724842341L1119.060523404785 370.5092724842341Q1119.060523404785 368.88205345137646 1118.7646653988108 367.42389613621845Q1118.4688073928369 365.9868715357728 1118.130683957438 364.6555105088894Q1117.792560522039 363.30301676729346 1117.496702516065 362.0773193139721Q1117.2008445100907 360.8516218606509 1117.2008445100907 359.60479169261714L1117.2008445100907 359.60479169261714Q1117.2008445100907 357.51265293608606 1118.5533382516865 356.3292209121896Q1119.88469927857 355.14578888829317 1121.955705320389 355.14578888829317L1121.955705320389 355.14578888829317Q1123.0757392001478 355.14578888829317 1123.667455212096 355.77977032966623Q1124.2591712240442 356.3926190563269 1124.7029582330056 357.30132578896166Q1125.1678779566791 358.1888998068839 1125.7595939686273 359.13987196894357Q1126.3513099805755 360.1119768457156 1127.4502111456222 360.7882237165136L1127.4502111456222 360.7882237165136Q1128.8661030313551 361.59126687558614 1131.0216399320238 361.97165574041003Q1133.177176832692 362.3520446052338 1135.5651735951974 362.6479026112079Q1137.9320376429903 362.9437606171821 1140.3200344054956 363.23961862315616Q1142.6868984532884 363.53547662913024 1144.5888427774075 364.2328562146406Q1146.4696543868145 364.9513685148635 1147.6742191254232 366.1770659681847Q1148.8576511493197 367.40276342150605 1148.8576511493197 369.47376946332474L1148.8576511493197 369.47376946332474Q1148.8576511493197 370.5092724842341 1148.6674567169077 371.52364279043104Q1148.4772622844957 372.5168803819155 1148.1180061343844 373.40445439983785L1148.1180061343844 373.40445439983785Q1147.230432116462 376.5320961772783 1146.5964506750888 379.765401528281Q1145.962469233716 382.99870687928365 1145.962469233716 386.1897468008615L1145.962469233716 386.1897468008615Q1145.962469233716 388.93699971347814 1146.3639908132523 391.19820018770884Q1146.786645107501 393.4805333766519 1147.8855462725476 395.10775240950943Q1149.0055801523067 396.73497144236694 1150.865259047001 397.6436781750017Q1152.7249379416953 398.53125219292406 1155.6201198572992 398.53125219292406L1155.6201198572992 398.53125219292406Q1159.783264655649 398.53125219292406 1162.889773718377 396.48137886581776Q1166.0174154958177 394.43150553871146 1168.4054122583227 391.09253661414664L1168.4054122583227 391.09253661414664ZM1211.4104866981297 391.09253661414664L1212.002202710078 391.3883946201207Q1210.0791256712464 394.2201783915872 1207.3741381880545 396.67157329822965Q1204.6480179901505 399.1229682048722 1201.4147126391476 400.89811624071683Q1198.181407288145 402.69439699127395 1194.6522439311682 403.7299000121833Q1191.1230805741914 404.76540303309264 1187.5727845025021 404.76540303309264L1187.5727845025021 404.76540303309264Q1182.52206568623 404.76540303309264 1178.1264610260432 403.476307435634Q1173.751989080569 402.16607912346296 1170.4764183001416 399.4822243549837Q1167.200847519714 396.81950230121674 1165.3411686250197 392.76202107642905Q1163.5026224450376 388.72567256635375 1163.5026224450376 383.2945648852577L1163.5026224450376 383.2945648852577Q1163.5026224450376 377.9479880630115 1165.4679649132943 373.29879082627565Q1167.4333073815508 368.6495935895397 1170.8779398796778 365.20496109141266Q1174.3437050925172 361.76032859328564 1179.0140350439656 359.75272069560424Q1183.7054977101263 357.74511279792284 1189.052074532373 357.74511279792284L1189.052074532373 357.74511279792284Q1191.5668675831525 357.74511279792284 1193.7646699132458 358.4424923834332Q1195.962472243339 359.13987196894357 1197.5896912761968 360.5346311399643Q1199.2380430237667 361.90825759627273 1200.167882471114 363.8947327792416Q1201.0765892037487 365.902340676923 1201.0765892037487 368.5016645865527L1201.0765892037487 368.5016645865527Q1201.0765892037487 371.62930636399324 1199.829759035715 374.0173031264984Q1198.5617961529688 376.3841671742913 1196.49079011115 378.1593152101359Q1194.3986513546188 379.9555959606929 1191.7570620155643 381.13902798458935Q1189.1154726765099 382.3224600084857 1186.2625561903312 383.08323773813345Q1183.4096397041524 383.8228827530687 1180.6201213621107 384.1398734737552Q1177.8306030200692 384.4779969091542 1175.5271371164135 384.4779969091542L1175.5271371164135 384.4779969091542L1173.751989080569 384.4779969091542Q1174.7029612426286 391.2404656171336 1179.0985659028154 394.81189440353535Q1183.4730378482896 398.38332318993696 1191.2076114330412 398.38332318993696L1191.2076114330412 398.38332318993696Q1196.7021172582745 398.38332318993696 1201.9430305069586 396.43911343639286Q1207.1839437556428 394.51603639756127 1211.4104866981297 391.09253661414664L1211.4104866981297 391.09253661414664ZM1173.5195292187323 380.5473119726412L1173.5195292187323 382.2590618643484L1175.3792081134266 382.2590618643484Q1178.063062881906 382.2590618643484 1180.8737139386599 381.39262056113853Q1183.7054977101263 380.5473119726412 1185.966698184357 378.87782751035866Q1188.2278986585877 377.20834304807624 1189.7283214031706 374.75694814143367Q1191.2076114330412 372.3055532347911 1191.2076114330412 369.17791145735066L1191.2076114330412 369.17791145735066Q1191.2076114330412 366.1348005387598 1189.89738312087 364.1271926410784Q1188.6082875234115 362.119584743397 1185.4172476018337 362.119584743397L1185.4172476018337 362.119584743397Q1182.1416768214062 362.119584743397 1179.8804763471753 364.0849272116536Q1177.6192758729449 366.0502696799101 1176.2033839872115 368.92431888080137Q1174.7874921014786 371.7772353669802 1174.1535106601054 374.94714257384567Q1173.5195292187323 378.0959170659986 1173.5195292187323 380.5473119726412L1173.5195292187323 380.5473119726412ZM1257.7756627772142 391.09253661414664L1258.2194497861751 391.3883946201207Q1256.5922307533178 394.1356475327374 1254.3944284232243 396.52364429524266Q1252.1966260931313 398.89050834303544 1249.5550367540768 400.68678909359255Q1246.9345801297345 402.46193712943716 1243.8703364964313 403.476307435634Q1240.8272255778406 404.46954502711856 1237.5727875121256 404.46954502711856L1237.5727875121256 404.46954502711856Q1232.7333958429776 404.46954502711856 1229.0563034830138 402.84232599426093Q1225.37921112305 401.1939742466909 1222.716489069283 398.40445590464947Q1220.0326343008037 395.6360702773203 1218.257486264959 391.9167124879316Q1216.461205514402 388.1973546985429 1215.4257024934927 384.1398734737552Q1214.3901994725834 380.10352496368 1213.946412463622 375.8558493064803Q1213.502625454661 371.62930636399324 1213.502625454661 367.76201957161743L1213.502625454661 367.76201957161743Q1213.502625454661 364.2117234999282 1213.798483460635 360.4501002811146Q1214.0943414666094 356.688477062301 1214.6860574785574 352.757792125788L1214.6860574785574 352.757792125788Q1212.3825915749017 352.8423229846377 1210.1847892448086 352.8423229846377Q1207.986986914715 352.8423229846377 1205.8314500140468 352.8423229846377L1205.8314500140468 352.8423229846377Q1204.4366908430259 352.8423229846377 1202.640410092469 352.757792125788Q1200.8652620566245 352.6943939816506 1199.3014411679042 352.1660761138397Q1197.7376202791838 351.63775824602885 1196.7021172582745 350.6022552251195Q1195.6666142373651 349.56675220421016 1195.6666142373651 347.55914430652876L1195.6666142373651 347.55914430652876Q1195.6666142373651 346.4391104267696 1196.0681358169013 345.78399627068416Q1196.49079011115 345.1077493998862 1197.1881696966605 344.7696259644872Q1197.8855492821708 344.4315025290882 1198.815388729518 344.325838955526Q1199.745228176865 344.2201753819638 1200.7173330536373 344.2201753819638L1200.7173330536373 344.2201753819638Q1201.8373669333964 344.2201753819638 1206.0005117317464 344.5794315320753Q1210.1425238153838 344.9598203968991 1216.0174185054411 345.40360740586027L1216.0174185054411 345.40360740586027Q1217.8770974001354 336.6335308001994 1220.8145447451639 328.15931220051255Q1223.7519920901923 319.70622631553823 1227.4713498795813 312.71129774572194L1227.4713498795813 312.71129774572194L1228.5068529004902 312.71129774572194Q1226.118856137985 320.80512748058493 1224.301442672716 329.0680189331473Q1222.4840292074464 337.3097776709973 1221.596455189524 345.78399627068416L1221.596455189524 345.78399627068416Q1227.0064301559073 346.14325242079553 1232.7756612724024 346.4179777120572Q1238.523759674185 346.6715702886064 1244.0393982141309 346.6715702886064L1244.0393982141309 346.6715702886064Q1252.1332279489939 346.6715702886064 1257.1839467652662 346.5236412856193Q1262.2346655815381 346.3757122826323 1265.1298474971418 346.14325242079553L1265.1298474971418 346.14325242079553Q1268.5533472805564 345.84739441482145 1270.2650971722637 345.55153640884737L1270.2650971722637 345.55153640884737L1270.5609551782377 346.8194992915935Q1266.1019523739137 347.85500231250285 1260.3749866868438 348.78484175985Q1254.6480209997735 349.71468120719715 1248.1814102977683 350.4120607927075Q1241.7359323104752 351.1305730929304 1234.825534599509 351.63775824602885Q1227.9151368885423 352.1660761138397 1221.068137321713 352.4619341198138L1221.068137321713 352.4619341198138Q1220.920208318726 353.94122414968433 1220.920208318726 355.46277960897976Q1220.920208318726 357.0054677829876 1220.920208318726 358.4847578128581L1220.920208318726 358.4847578128581Q1220.920208318726 362.0561865992597 1221.2583317541253 366.3461276858842Q1221.596455189524 370.6572014872211 1222.4840292074464 375.01054071798296Q1223.3716032253687 379.36387994874474 1224.8931586846638 383.4847593176697Q1226.4147141439594 387.6056386865947 1228.9083744800269 390.75441317874765Q1231.4020348160943 393.924320385613 1234.8889327436464 395.8473974244447Q1238.375830671198 397.7916071779888 1243.130691481496 397.7916071779888L1243.130691481496 397.7916071779888Q1247.526296141683 397.7916071779888 1251.0554594986597 395.8473974244447Q1254.5846228556366 393.924320385613 1257.7756627772142 391.09253661414664L1257.7756627772142 391.09253661414664ZM1297.082512142345 380.10352496368L1297.082512142345 380.10352496368Q1297.082512142345 385.30217278293924 1295.3707622506377 389.7611755872632Q1293.6590123589303 394.2201783915872 1290.5313705814897 397.4957491720147Q1287.4248615187616 400.75018723772985 1283.0715222879999 402.60986613242414Q1278.718183057238 404.46954502711856 1273.4561370938418 404.46954502711856L1273.4561370938418 404.46954502711856Q1268.7646744276808 404.46954502711856 1265.0241839235796 402.71552970598634Q1261.2625607047662 400.98264709956663 1258.5998386509991 398.0029343251132Q1255.9159838825199 395.04435426537214 1254.5000919967865 391.05027118472174Q1253.0842001110536 387.07732081878385 1253.0842001110536 382.5549198703226L1253.0842001110536 382.5549198703226Q1253.0842001110536 378.77216393679646 1254.1619685613878 375.34866415338195Q1255.239737011722 371.9251643699673 1257.1839467652662 368.98771702493866Q1259.1070238040975 366.0502696799101 1261.7908785725772 363.57774205855515Q1264.4536006263438 361.08408172248767 1267.5812424037845 359.07647382480627L1267.5812424037845 359.07647382480627L1268.4688164217068 359.75272069560424Q1265.3411746442662 363.38754762614315 1263.5660266084215 367.76201957161743Q1261.7908785725772 372.1576242318041 1261.7908785725772 377.06041404508915L1261.7908785725772 377.06041404508915Q1261.7908785725772 380.6107101167785 1262.8686470229113 384.3089351914547Q1263.9464154732455 387.9860275514186 1266.0174215150641 391.02913847000934Q1268.1095602715955 394.0722493886001 1271.2160693343235 395.9953264274318Q1274.3437111117642 397.9395361809759 1278.3589269071267 397.9395361809759L1278.3589269071267 397.9395361809759Q1280.8737199579068 397.9395361809759 1283.1137877174247 396.88290044535404Q1285.3327227622308 395.8473974244447 1287.0022072245129 394.0722493886001Q1288.6716916867954 392.2759686380431 1289.6860619929926 390.0147681638124Q1290.6792995844767 387.7535676895817 1290.6792995844767 385.30217278293924L1290.6792995844767 385.30217278293924Q1290.6792995844767 382.91417602043396 1289.9819199989665 380.65297554620327Q1289.284540413456 378.3917750719727 1288.01657753071 376.4264326037161Q1286.7486146479637 374.4610901354596 1284.973466612119 372.85500381731447Q1283.177185861562 371.27005021388175 1281.1061798197434 370.21341447826L1281.1061798197434 370.21341447826Q1279.922747795847 369.6216984663117 1278.844979345513 369.32584046033764Q1277.7672108951783 369.02998245436356 1276.4992480124324 368.6495935895397L1276.4992480124324 368.6495935895397Q1275.9709301446214 368.5861954454024 1275.3792141326735 368.3960010129905Q1274.787498120725 368.2058065805786 1274.2591802529141 367.9522140040293Q1273.7519950998158 367.69862142748013 1273.3716062349918 367.25483441851895Q1273.0123500848804 366.8110474095578 1273.0123500848804 366.1348005387598L1273.0123500848804 366.1348005387598Q1273.0123500848804 364.8034395118764 1273.9633222469402 363.68340563211734Q1274.935427123712 362.5633717523582 1276.2667881505954 361.71806316386073Q1277.6192818921913 360.8516218606509 1279.098571922062 360.3655694222649Q1280.5778619519324 359.9006496985912 1281.6978958316918 359.9006496985912L1281.6978958316918 359.9006496985912Q1285.4806517652178 359.9006496985912 1288.3758336808214 361.82372673742293Q1291.271015596425 363.74680377625464 1293.215225349969 366.7265165507081Q1295.1383023888006 369.70622932516153 1296.110407265573 373.25652539685075Q1297.082512142345 376.82795418325236 1297.082512142345 380.10352496368Z " fill="#616161" transform="matrix(0.6745908399040245,0,0,0.6745908399040246,0,47.577287227570906)"/></g></svg>